<svg xmlns="http://www.w3.org/2000/svg" width="346.725" height="400.895" viewBox="0 0 346.725 400.895">
  <g id="svgg" transform="translate(-37.891 -12.238)">
    <path id="path0" d="M150.465,14.184c-5.923,3.611-6.043,4.248-6.043,31.753,0,37.282-7.739,33.413,66.832,33.413s66.832,3.869,66.832-33.413c0-27.506-.121-28.142-6.043-31.753-4.258-2.6-117.32-2.6-121.578,0M61.1,40.465c-8.581,2.682-17,10.167-20.976,18.658L37.891,63.9v325l2.252,4.806A38.174,38.174,0,0,0,56.6,410.431l5.488,2.7H360.423l5.488-2.7a38.175,38.175,0,0,0,16.453-16.721l2.252-4.806V63.9l-2.252-4.806a38.191,38.191,0,0,0-16.451-16.721l-5.485-2.7-27.684-.25-27.685-.25-.443,16.542c-.77,28.763-8.349,41.4-29.031,48.405-7.015,2.376-120.462,2.4-128.247.029-20.627-6.287-28.673-19.511-29.447-48.392l-.442-16.5-26.413.056c-19.37.042-27.35.35-29.933,1.156M176.68,135.019c5.2,2.468,8.109,9.09,6.63,15.095-.637,2.589-42.641,45.442-46.583,47.525-7.274,3.843-10.44,2.029-28.761-16.5C89.236,162.2,87.527,158.1,95.185,150.437c7.042-7.041,12.212-5.479,25.645,7.751l10.253,10.1,16.483-16.377c20.028-19.9,21.263-20.615,29.115-16.889M324.041,161.7c8.974,5.272,8.974,17.2,0,22.468-4.573,2.686-100.692,2.686-105.265,0-10.5-6.168-8.288-20.919,3.569-23.807,6.912-1.683,98.607-.476,101.7,1.339M176.68,215.226c5.2,2.468,8.109,9.09,6.63,15.095-.637,2.589-42.641,45.442-46.583,47.525-7.274,3.844-10.44,2.029-28.761-16.5-18.731-18.939-20.44-23.046-12.782-30.705,7.042-7.041,12.212-5.479,25.645,7.751l10.253,10.1,16.483-16.377c20.028-19.9,21.263-20.615,29.115-16.889M324.041,241.9c8.974,5.272,8.974,17.2,0,22.469-2.859,1.679-3.99,1.715-52.632,1.715s-49.774-.036-52.633-1.715c-10.5-6.168-8.288-20.919,3.569-23.807,6.912-1.683,98.607-.476,101.7,1.339M176.68,295.432c5.2,2.468,8.109,9.09,6.63,15.095-.637,2.589-42.641,45.442-46.583,47.525-7.274,3.844-10.44,2.029-28.761-16.5-18.731-18.939-20.44-23.046-12.782-30.705,7.042-7.041,12.212-5.479,25.645,7.751l10.253,10.1,16.483-16.377c20.028-19.9,21.263-20.615,29.115-16.889M324.041,322.11c8.974,5.272,8.974,17.2,0,22.469-2.859,1.679-3.99,1.715-52.632,1.715s-49.774-.036-52.633-1.715c-10.5-6.168-8.288-20.919,3.569-23.807,6.912-1.683,98.607-.476,101.7,1.339" transform="translate(0 0)" fill="#007ab3" fill-rule="evenodd"/>
  </g>
</svg>
