<svg xmlns="http://www.w3.org/2000/svg" width="25.177" height="31.457" viewBox="0 0 25.177 31.457">
  <g id="increase" transform="translate(0.01 -0.006)">
    <path id="Path_23148" data-name="Path 23148" d="M17.929,12.6v2.115a8.581,8.581,0,0,0-7.716,3.61,8.64,8.64,0,0,0-1.288,8.436c-.122.007-.225.018-.328.019q-1.64,0-3.28,0A1.077,1.077,0,0,1,4.1,25.549q0-6.249,0-12.5V12.6H1.9c-.274,0-.547,0-.82,0A.991.991,0,0,1,.1,11.968,1,1,0,0,1,.3,10.791Q2.7,8.207,5.1,5.619l4.639-5A1.623,1.623,0,0,1,12.262.6c3.131,3.375,6.251,6.758,9.394,10.121a1.077,1.077,0,0,1-.4,1.838,2.057,2.057,0,0,1-.487.041c-.929,0-1.857,0-2.842,0Z" transform="translate(0)" fill="#007ab3"/>
    <path id="Path_23149" data-name="Path 23149" d="M116.043,180.15a7.839,7.839,0,0,1,7.852,7.808,7.857,7.857,0,1,1-15.714-.01,7.844,7.844,0,0,1,7.861-7.8Zm-3.169,11.624a3.132,3.132,0,0,0,.465-.313q3.079-3.067,6.147-6.143a1.031,1.031,0,0,0,.148-.174.526.526,0,0,0-.714-.714,1.324,1.324,0,0,0-.222.193q-3.038,3.037-6.075,6.076c-.054.054-.136.107-.148.171a.958.958,0,0,0-.038.513c.068.152.266.247.436.391Zm5.8.706a1.833,1.833,0,0,0-.022-3.666,1.8,1.8,0,0,0-1.808,1.848A1.779,1.779,0,0,0,118.673,192.48Zm-5.251-8.887a1.812,1.812,0,1,0,1.828,1.818A1.77,1.77,0,0,0,113.422,183.593Z" transform="translate(-98.73 -164.391)" fill="#007ab3"/>
    <path id="Path_23150" data-name="Path 23150" d="M219.907,292.832a.754.754,0,0,1-.762-.8.777.777,0,0,1,1.554.03.754.754,0,0,1-.793.77Z" transform="translate(-199.99 -265.793)" fill="#007ab3"/>
    <path id="Path_23151" data-name="Path 23151" d="M159.837,231.44a.769.769,0,1,1-.778.782A.757.757,0,0,1,159.837,231.44Z" transform="translate(-145.158 -211.195)" fill="#007ab3"/>
  </g>
</svg>
