<svg xmlns="http://www.w3.org/2000/svg" width="31.449" height="31.457" viewBox="0 0 31.449 31.457">
  <g id="graphs" transform="translate(0)">
    <path id="Path_23123" data-name="Path 23123" d="M50.193,60.4a4.312,4.312,0,0,1-6.228,0,2.406,2.406,0,0,0-.73,1.311,15.831,15.831,0,0,0-.125,2.317A.85.85,0,0,0,44,64.8q3.085.01,6.169,0a.9.9,0,0,0,.9-.905c.011-.481.021-.963-.007-1.442A3.222,3.222,0,0,0,50.193,60.4Zm-9.814,4.926a4.368,4.368,0,0,1-6.252,0,2.406,2.406,0,0,0-.725,1.322,15.885,15.885,0,0,0-.121,2.287.851.851,0,0,0,.885.777q3.085.011,6.169,0a.9.9,0,0,0,.9-.9c.012-.491.022-.983-.008-1.473a3.232,3.232,0,0,0-.852-2.019Zm-9.834,4.9a4.344,4.344,0,0,1-6.244.007,2.484,2.484,0,0,0-.733,1.352,15.818,15.818,0,0,0-.117,2.257.86.86,0,0,0,.909.785q3.054.009,6.108,0a.91.91,0,0,0,.943-.924c.01-.47.018-.942-.007-1.411a3.284,3.284,0,0,0-.861-2.066Zm6.7-10.338a2.456,2.456,0,1,0,2.459,2.46A2.46,2.46,0,0,0,37.247,59.89ZM27.421,64.8a2.456,2.456,0,1,0,2.457,2.463A2.459,2.459,0,0,0,27.421,64.8Z" transform="translate(-21.526 -54.976)" fill="#007ab3"/>
    <path id="Path_23124" data-name="Path 23124" d="M31.448,161.342a1.184,1.184,0,0,1-1.237.684q-14.526-.017-29.05-.009a2.06,2.06,0,0,1-.428-.023.917.917,0,0,1,.161-1.815c.325-.012.651,0,1.01,0v-7.017a.952.952,0,0,1,1.087-1.091H8.826a.942.942,0,0,1,1.063,1.054q0,3.347,0,6.694v.344h1.843v-11.9c0-.761.345-1.105,1.1-1.105h5.8a.948.948,0,0,1,1.077,1.072v11.93h1.843V143.391c0-.824.327-1.151,1.15-1.151h5.742a.953.953,0,0,1,1.091,1.087v16.841c.718.047,1.526-.207,1.9.684v.492Z" transform="translate(0 -130.568)" fill="#007ab3"/>
    <path id="Path_23125" data-name="Path 23125" d="M284.252,0c.2.067.41.119.6.2a2.454,2.454,0,1,1-1.571-.131c.077-.02.153-.048.229-.072h.737Z" transform="translate(-258.332)" fill="#007ab3"/>
    <path id="Path_23126" data-name="Path 23126" d="M270.108,66.08a3.222,3.222,0,0,1,.867,2.053c.028.479.019.962.007,1.442a.9.9,0,0,1-.9.905q-3.085.014-6.169,0a.85.85,0,0,1-.889-.771,16.046,16.046,0,0,1,.125-2.317,2.406,2.406,0,0,1,.729-1.311,4.312,4.312,0,0,0,6.228,0Z" transform="translate(-241.441 -60.658)" fill="#007ab3"/>
    <path id="Path_23127" data-name="Path 23127" d="M150.335,126.11a3.232,3.232,0,0,1,.852,2.019c.03.489.021.982.008,1.473a.9.9,0,0,1-.9.9q-3.085.012-6.169,0a.852.852,0,0,1-.885-.777,16.005,16.005,0,0,1,.121-2.287,2.4,2.4,0,0,1,.725-1.322A4.368,4.368,0,0,0,150.335,126.11Z" transform="translate(-131.482 -115.762)" fill="#007ab3"/>
    <path id="Path_23128" data-name="Path 23128" d="M30.554,185.87a3.282,3.282,0,0,1,.861,2.066c.025.469.016.941.007,1.411a.911.911,0,0,1-.943.924q-3.054.009-6.108,0a.86.86,0,0,1-.909-.785,15.939,15.939,0,0,1,.117-2.257,2.484,2.484,0,0,1,.733-1.352,4.344,4.344,0,0,0,6.244-.007Z" transform="translate(-21.536 -170.618)" fill="#007ab3"/>
    <path id="Path_23129" data-name="Path 23129" d="M164.143,59.89a2.456,2.456,0,1,1-2.453,2.467A2.459,2.459,0,0,1,164.143,59.89Z" transform="translate(-148.422 -54.975)" fill="#007ab3"/>
    <path id="Path_23130" data-name="Path 23130" d="M44.393,119.771a2.456,2.456,0,1,1-2.454,2.464,2.46,2.46,0,0,1,2.454-2.464Z" transform="translate(-38.499 -109.942)" fill="#007ab3"/>
  </g>
</svg>
