<svg xmlns="http://www.w3.org/2000/svg" width="28.707" height="20.193" viewBox="0 0 28.707 20.193">
  <path id="path0" d="M4.483,59.239c-3.745.94-3.745,6.507,0,7.386.27.063.308.085.2.11a5.99,5.99,0,0,0-1.953.661A5.636,5.636,0,0,0,.1,70.681l-.152.492-.019,2.4-.019,2.4H7.129l.039-.49A7.183,7.183,0,0,1,10,70.314l.438-.321a5.728,5.728,0,0,0-1-1.56A5.878,5.878,0,0,0,6.528,66.8c-.477-.074-.5-.1-.141-.182a3.829,3.829,0,0,0,1.739-6.379,3.987,3.987,0,0,0-3.643-1m17.654,0c-3.743.94-3.743,6.526,0,7.384.356.082.336.108-.141.182a5.878,5.878,0,0,0-2.915,1.628,5.728,5.728,0,0,0-1,1.56l.438.321a7.183,7.183,0,0,1,2.835,5.16l.039.49h7.221l-.019-2.4-.019-2.4-.152-.492A5.636,5.636,0,0,0,25.8,67.4a5.99,5.99,0,0,0-1.953-.661c-.113-.025-.075-.047.2-.11a3.831,3.831,0,0,0,1-6.957,4.221,4.221,0,0,0-2.908-.428M13.449,63c-3.894.823-3.941,6.583-.061,7.424l.332.072-.415.07a5.488,5.488,0,0,0-4.227,3.6,8.63,8.63,0,0,0-.308,3.269v1.9H19.754v-1.9a8.631,8.631,0,0,0-.308-3.269,5.488,5.488,0,0,0-4.227-3.6l-.415-.07.332-.072A3.807,3.807,0,0,0,13.449,63" transform="translate(0.092 -59.134)" fill="#007ab3" fill-rule="evenodd"/>
</svg>
