<svg xmlns="http://www.w3.org/2000/svg" width="28.737" height="27.189" viewBox="0 0 28.737 27.189">
  <g id="growth-graph" transform="translate(-0.006 -0.002)">
    <g id="Group_14591" data-name="Group 14591">
      <path id="Path_23089" data-name="Path 23089" d="M298.155,128.812v-7.54c0-.91.39-1.3,1.3-1.3q1.49,0,2.981,0a1.1,1.1,0,0,1,1.231,1.225q0,7.643,0,15.284a1.086,1.086,0,0,1-1.215,1.2q-1.548,0-3.1,0a1.068,1.068,0,0,1-1.194-1.188Q298.152,132.655,298.155,128.812Z" transform="translate(-274.921 -110.623)" fill="#007ab3"/>
      <path id="Path_23090" data-name="Path 23090" d="M47.311,3.844c-.184-.138-.348-.257-.507-.383a1.072,1.072,0,0,1-.46-1.07,1.355,1.355,0,0,1,.834-1.176C48.23.833,49.277.442,50.329.067a1.035,1.035,0,0,1,1.107.255,1.375,1.375,0,0,1,.421,1.14c-.075,1-.176,2-.214,3a1.343,1.343,0,0,1-1.462,1.289,1.453,1.453,0,0,1-.6-.252,1.61,1.61,0,0,1-.3-.372c-.416.467-.767.882-1.14,1.276a33.552,33.552,0,0,1-12.992,8.725,18.369,18.369,0,0,1-6.223,1.163,1.165,1.165,0,0,1-1.191-1.55,1.05,1.05,0,0,1,1.037-.833c4.266-.058,7.977-1.731,11.483-3.967a31.886,31.886,0,0,0,6.918-5.932c.038-.044.075-.089.139-.166Z" transform="translate(-25.519)" fill="#007ab3"/>
      <path id="Path_23091" data-name="Path 23091" d="M198.226,201.282q0-2.322,0-4.643c0-.873.4-1.273,1.26-1.274q1.533,0,3.066,0a1.075,1.075,0,0,1,1.186,1.173q.006,4.746,0,9.491a1.075,1.075,0,0,1-1.182,1.176q-1.562,0-3.124,0a1.184,1.184,0,0,1-1.205-1.222q0-2.351,0-4.7Z" transform="translate(-182.776 -180.142)" fill="#007ab3"/>
      <path id="Path_23092" data-name="Path 23092" d="M98.331,244.114q0-1.519,0-3.038a1.1,1.1,0,0,1,1.227-1.226q1.548,0,3.1,0a1.077,1.077,0,0,1,1.186,1.176q.008,3.009,0,6.018c0,.672-.284.953-.935,1.19a2.831,2.831,0,0,1-.982.111c-.8.012-1.6.007-2.395,0a1.083,1.083,0,0,1-1.2-1.194c0-1.013,0-2.026,0-3.038Z" transform="translate(-90.663 -221.161)" fill="#007ab3"/>
      <path id="Path_23093" data-name="Path 23093" d="M2.7,292.261c-.506,0-1.012,0-1.518,0a1.081,1.081,0,0,1-1.171-1.19q0-1.212,0-2.424a1.076,1.076,0,0,1,1.164-1.168q1.533-.012,3.066,0a1.061,1.061,0,0,1,1.155,1.169q.008,1.212,0,2.424a1.174,1.174,0,0,1-1.206,1.189H2.7Z" transform="translate(0 -265.073)" fill="#007ab3"/>
    </g>
  </g>
</svg>
