<svg xmlns="http://www.w3.org/2000/svg" width="16.029" height="18.533" viewBox="0 0 16.029 18.533">
  <g id="svgg" transform="translate(-39.891 -12.238)">
    <path id="path0" d="M43.1,12.328c-.274.167-.279.2-.279,1.468,0,1.724-.358,1.545,3.09,1.545S49,15.519,49,13.8c0-1.272-.006-1.3-.279-1.468a43.924,43.924,0,0,0-5.62,0m-4.131,1.215a1.706,1.706,0,0,0-.97.863l-.1.221V29.651l.1.222a1.765,1.765,0,0,0,.761.773l.254.125H52.8l.254-.125a1.765,1.765,0,0,0,.761-.773l.1-.222V14.626l-.1-.222a1.766,1.766,0,0,0-.761-.773l-.254-.125-1.28-.012-1.28-.012-.02.765c-.036,1.33-.386,1.914-1.342,2.238a53.415,53.415,0,0,1-5.929,0c-.954-.291-1.326-.9-1.361-2.237l-.02-.763-1.221,0a8.089,8.089,0,0,0-1.384.053m5.343,4.371a.621.621,0,0,1,.307.7,25.157,25.157,0,0,1-2.153,2.2c-.336.178-.483.094-1.33-.763-.866-.876-.945-1.065-.591-1.419.326-.326.565-.253,1.186.358l.474.467.762-.757c.926-.92.983-.953,1.346-.781m6.812,1.233a.589.589,0,0,1,0,1.039,31.827,31.827,0,0,1-4.866,0,.591.591,0,0,1,.165-1.1,44.922,44.922,0,0,1,4.7.062m-6.812,2.475a.621.621,0,0,1,.307.7,25.156,25.156,0,0,1-2.153,2.2c-.336.178-.483.094-1.33-.763-.866-.876-.945-1.065-.591-1.419.326-.326.565-.253,1.186.358l.474.467.762-.757c.926-.92.983-.953,1.346-.781m6.812,1.233a.589.589,0,0,1,0,1.039c-.132.078-.184.079-2.433.079s-2.3,0-2.433-.079a.591.591,0,0,1,.165-1.1,44.922,44.922,0,0,1,4.7.062M44.307,25.33a.621.621,0,0,1,.307.7,25.156,25.156,0,0,1-2.153,2.2c-.336.178-.483.094-1.33-.763-.866-.876-.945-1.065-.591-1.419.326-.326.565-.253,1.186.358l.474.467.762-.757c.926-.92.983-.953,1.346-.781m6.812,1.233a.589.589,0,0,1,0,1.039c-.132.078-.184.079-2.433.079s-2.3,0-2.433-.079a.591.591,0,0,1,.165-1.1,44.921,44.921,0,0,1,4.7.062" transform="translate(2 0)" fill="#007ab3" fill-rule="evenodd"/>
  </g>
</svg>
