<svg xmlns="http://www.w3.org/2000/svg" width="20.034" height="20.287" viewBox="0 0 20.034 20.287">
  <path id="path0" d="M20.141-.244a1.694,1.694,0,0,0-1.117,2.051l.031.145L17.6,3.189c-.8.681-1.5,1.28-1.56,1.333-.1.093-.108.094-.257.031a1.761,1.761,0,0,0-1.688.253l-.145.127L12.631,4.4c-1.515-.619-1.369-.532-1.421-.852a1.652,1.652,0,0,0-3.277.178l-.017.356L6.522,4.9,5.129,5.72,4.84,5.572a1.659,1.659,0,1,0,.9,1.569l.026-.36,1.385-.819,1.385-.819.259.132a1.649,1.649,0,0,0,1.836-.188l.135-.119,1.341.549,1.341.549.066.318A1.66,1.66,0,0,0,16.65,6.8a1.975,1.975,0,0,0,.112-1.113l-.04-.116,1.547-1.319c1.815-1.547,1.608-1.4,1.857-1.317A1.672,1.672,0,0,0,22.1.579a1.722,1.722,0,0,0-1.962-.823M19.092,12.847v7.127h3.286V5.721H19.092v7.127m-11.165.99v6.137h3.286V7.7H7.927v6.137m5.583,1.307v4.83H16.8V10.313H13.509v4.83M2.344,16.153v3.821H5.63V12.333H2.344v3.821" transform="translate(-2.344 0.313)" fill="#003781" fill-rule="evenodd"/>
</svg>
