<svg xmlns="http://www.w3.org/2000/svg" width="18.955" height="16.307" viewBox="0 0 18.955 16.307">
  <g id="svgg" transform="translate(-0.24 -28.125)">
    <path id="path0" d="M4.6,29.867a15.822,15.822,0,0,0,.037,1.742c.036,0,3.707-3.434,3.707-3.468,0-.009-.842-.017-1.872-.017H4.6v1.742m6.487-1.725c0,.034,3.671,3.468,3.707,3.468a15.812,15.812,0,0,0,.037-1.742V28.125H12.96c-1.03,0-1.872.008-1.872.017m-3.511,2.2L5.457,32.332l2.13.01c1.172.005,3.089.005,4.261,0l2.131-.01-2.113-1.983c-1.162-1.091-2.125-1.987-2.14-1.992s-.982.887-2.149,1.983m-5.662.314L.322,32.332l1.59.01c.874.005,1.6,0,1.6,0s.009-.767,0-1.688l-.01-1.675L1.915,30.654m13.992,0v1.7H17.5c.877,0,1.594-.009,1.594-.019s-2.5-2.668-3.008-3.186l-.18-.185v1.7M.24,33.478c.011.029,1.667,2.043,3.68,4.476l3.672,4.439c.1.128-.252-.71-1.906-4.494L3.731,33.426H1.976c-1.5,0-1.752.008-1.735.052m4.687.017c.1.259,4.775,10.936,4.79,10.937S14.41,33.75,14.507,33.5c.026-.069-.08-.07-4.79-.07s-4.816,0-4.79.07m8.821,4.4c-1.655,3.788-2.008,4.62-1.906,4.494l3.672-4.439c2.013-2.433,3.669-4.447,3.68-4.476.017-.045-.238-.052-1.735-.052H15.7L13.749,37.9" transform="translate(0 0)" fill="#007ab3" fill-rule="evenodd"/>
  </g>
</svg>
