<svg xmlns="http://www.w3.org/2000/svg" width="19.356" height="18.113" viewBox="0 0 19.356 18.113">
  <g id="svgg" transform="translate(0.014 -12.923)">
    <path id="path0" d="M5.219,13.812C.226,14.75.233,14.748.077,14.978l-.09.133v6.853c0,7.719-.028,6.992.276,7.177.141.086,9.708,1.894,10.022,1.894.513,0,.582-.168.582-1.415v-1H14.9c4.527,0,4.174.022,4.354-.273.118-.194.118-12.557,0-12.751-.18-.3.173-.273-4.354-.273H10.867V14.31c0-1.128-.009-1.171-.273-1.332-.212-.129-.429-.1-5.374.834m12.9,8.157v5.44H10.867V26.2h1.011c1.265,0,1.407-.061,1.407-.6s-.142-.6-1.407-.6H10.867V23.782h1.011c1.265,0,1.407-.061,1.407-.6s-.142-.6-1.407-.6H10.867V21.365h1.011c1.265,0,1.407-.061,1.407-.6s-.142-.6-1.407-.6H10.867V18.947h1.011c1.265,0,1.407-.061,1.407-.6s-.142-.6-1.407-.6H10.867V16.529H18.12v5.44m-3.353-4.156a.641.641,0,0,0,0,1.058c.113.069.191.075.935.075.907,0,.977-.017,1.134-.273a.663.663,0,0,0-.2-.86,5.145,5.145,0,0,0-1.871,0m-6.629.642a.589.589,0,0,1,.2.778c-.039.064-.486.651-.994,1.3s-.935,1.208-.951,1.234A8.216,8.216,0,0,0,7.318,22.9c1.08,1.232,1.093,1.249,1.093,1.483a.574.574,0,0,1-.829.511,14.591,14.591,0,0,1-1.02-1.1,12.781,12.781,0,0,0-.946-1.021c-.018.011-.384.472-.814,1.024a11.828,11.828,0,0,1-.9,1.076.572.572,0,0,1-.856-.494c0-.221,0-.216.958-1.451.449-.577.817-1.066.817-1.087S4.454,21.393,4,20.88c-.936-1.068-.958-1.1-.958-1.329a.572.572,0,0,1,.85-.5,12.772,12.772,0,0,1,.888.961c.426.49.783.892.793.892s.434-.536.941-1.192c1.086-1.4,1.216-1.5,1.619-1.259m6.629,1.776a.641.641,0,0,0,0,1.058c.113.069.191.075.935.075.907,0,.977-.017,1.134-.273a.663.663,0,0,0-.2-.86,5.145,5.145,0,0,0-1.871,0m0,2.418a.641.641,0,0,0,0,1.058c.113.069.191.075.935.075.907,0,.977-.017,1.134-.273a.663.663,0,0,0-.2-.86,5.145,5.145,0,0,0-1.871,0m0,2.418a.641.641,0,0,0,0,1.058c.113.069.191.075.935.075.907,0,.977-.017,1.134-.273a.663.663,0,0,0-.2-.86,5.145,5.145,0,0,0-1.871,0" transform="translate(0 0)" fill="#007ab3" fill-rule="evenodd"/>
  </g>
</svg>
