<svg id="svgg" xmlns="http://www.w3.org/2000/svg" width="19" height="22.756" viewBox="0 0 19 22.756">
  <path id="path0" d="M41.134-.491a5.52,5.52,0,0,0-3.986,2.666,5.5,5.5,0,1,0,9.948.944,5.589,5.589,0,0,0-5.962-3.61M36.961,10.472c-2.494.364-3.911,2.353-4.329,6.076-.3,2.668.231,4.278,1.688,5.116.994.572.657.549,7.9.534l6.213-.013.377-.116c2.341-.72,3.11-2.55,2.574-6.12-.522-3.476-2.08-5.355-4.552-5.49-.6-.033-.609-.031-1.645.632a5.109,5.109,0,0,1-6.3-.01c-.98-.639-1.213-.713-1.926-.609" transform="translate(-32.551 0.553)" fill="#f62459" fill-rule="evenodd"/>
</svg>
