<svg xmlns="http://www.w3.org/2000/svg" width="52.252" height="60.166" viewBox="0 0 52.252 60.166">
  <g id="svgg" transform="translate(-36.724 -12.18)">
    <path id="path0" d="M62.46,12.278c-.326.138-.535.5-1.577,2.715l-1.2,2.556-2.556.387c-3.17.48-3.245.515-3.245,1.522,0,.4.172.617,1.935,2.4l1.935,1.959-.432,2.618c-.515,3.12-.516,3.13-.125,3.521.516.516.875.415,3.393-.948l2.319-1.256,2.252,1.256c3.835,2.139,4.086,1.94,3.314-2.627l-.434-2.567L69.834,22c3.2-3.231,3.148-3.425-.99-4.049l-2.627-.4-1.252-2.546a20.4,20.4,0,0,0-1.44-2.646,1.117,1.117,0,0,0-1.064-.084M47.581,22.458l-.978.7-1.091-.39c-2.371-.848-2.954-.283-2.127,2.061l.4,1.136-.713,1.012c-1.293,1.835-1,2.443,1.209,2.539l1.443.063.71,1c1.357,1.915,2.157,1.868,2.753-.162.43-1.464.35-1.377,1.659-1.8,1.246-.4,1.658-.709,1.658-1.249,0-.577-.117-.718-1.256-1.506l-1.1-.763L50.1,23.666c-.064-2.2-.7-2.506-2.523-1.208m28.45-.469c-.274.222-.3.343-.337,1.674L75.652,25.1l-1.048.737c-1.909,1.343-1.764,2.2.474,2.8l1.1.293.383,1.242c.727,2.356,1.481,2.4,3,.191l.564-.822,1.406-.042c1.261-.038,1.435-.071,1.688-.324.3-.3.4-1.215.152-1.383a8.041,8.041,0,0,1-.732-.939L82.03,26,82.42,24.9c.849-2.373.284-2.956-2.06-2.129l-1.136.4-1.012-.713c-1.119-.789-1.649-.9-2.181-.474M60.707,32.5C51.777,35.168,53.6,48.3,62.9,48.3c8.981,0,11.168-12.592,2.715-15.63a10.422,10.422,0,0,0-4.906-.166m22.679,2.966c-.849.321-1.233.712-6.259,6.366-2.7,3.041-5.285,5.872-5.737,6.293a12.741,12.741,0,0,1-17.031.057c-.5-.452-3.134-3.33-5.863-6.395-5.622-6.315-5.562-6.263-7.274-6.362-3.395-.2-5.575,3.62-3.945,6.905.2.4,2.6,3.309,6.268,7.6,7.978,9.325,7.23,7.665,7.3,16.187l.052,6.231H74.921l0-6.231c0-8.671-.783-6.894,7.188-16.231,6.37-7.462,6.625-7.806,6.813-9.192.48-3.54-2.519-6.369-5.539-5.225" transform="translate(0)" fill="#5fcd8a" fill-rule="evenodd"/>
  </g>
</svg>
