<svg id="svgg" xmlns="http://www.w3.org/2000/svg" width="19.926" height="23.865" viewBox="0 0 19.926 23.865">
  <path id="path0" d="M41.552-.488a5.789,5.789,0,0,0-4.18,2.8,5.771,5.771,0,1,0,10.433.99A5.862,5.862,0,0,0,41.552-.488m-4.376,11.5c-2.615.382-4.1,2.467-4.54,6.372-.314,2.8.243,4.486,1.77,5.365,1.042.6.689.576,8.29.56l6.516-.013.4-.122c2.455-.755,3.262-2.674,2.7-6.418-.547-3.645-2.181-5.616-4.774-5.758-.632-.035-.639-.032-1.725.663a5.358,5.358,0,0,1-6.612-.01c-1.028-.67-1.272-.748-2.02-.639" transform="translate(-32.551 0.553)" fill="#f86200" fill-rule="evenodd"/>
</svg>
