<svg xmlns="http://www.w3.org/2000/svg" width="20.451" height="20.462" viewBox="0 0 20.451 20.462">
  <g id="svgg" transform="translate(-0.005 -0.022)">
    <path id="path0" d="M9.591.1A2.206,2.206,0,1,0,10.832.085,2.838,2.838,0,0,0,9.591.1M7.3,4.9a2.876,2.876,0,0,0-.86,2.414c0,1.141-.083,1.09,1.787,1.09H9.631v2.547l-.23.112a1.864,1.864,0,0,0-.957,1.313l-.022.212-1,.312-1.29.4-.287.089-.152-.26a2.2,2.2,0,1,0,.231,1.777c.073-.24.1-.273.208-.3.069-.02.688-.21,1.375-.424l1.249-.388.22.2a1.85,1.85,0,0,0,2.513,0l.222-.2,1.248.389c.686.214,1.3.405,1.374.425.113.032.135.064.208.3a2.2,2.2,0,1,0,.227-1.769l-.146.25-.627-.194L12.7,12.8l-.664-.2-.022-.213a1.864,1.864,0,0,0-.957-1.313l-.23-.112V8.409h1.408c1.87,0,1.787.051,1.787-1.09a2.923,2.923,0,0,0-.8-2.358c-.465-.491-.439-.486-.847-.159a3.328,3.328,0,0,1-4.292,0c-.416-.333-.356-.341-.791.1M.865,16.967A2.876,2.876,0,0,0,0,19.382c0,.782.019.852.265,1.015.178.117,6.881.117,7.059,0,.246-.162.265-.233.265-1.015a2.923,2.923,0,0,0-.8-2.358c-.465-.491-.439-.486-.847-.159a3.328,3.328,0,0,1-4.292,0c-.416-.333-.356-.341-.791.1m12.862,0a2.876,2.876,0,0,0-.86,2.415c0,.782.019.852.265,1.015.178.117,6.881.117,7.059,0,.246-.162.265-.233.265-1.015a2.923,2.923,0,0,0-.8-2.358c-.465-.491-.439-.486-.847-.159a3.328,3.328,0,0,1-4.292,0c-.415-.333-.356-.341-.791.1" transform="translate(0 0)" fill="#003781" fill-rule="evenodd"/>
  </g>
</svg>
