<svg xmlns="http://www.w3.org/2000/svg" width="17.603" height="17.592" viewBox="0 0 17.603 17.592">
  <g id="svgg" transform="translate(-18.848 -18.784)">
    <path id="path0" d="M27.251,18.855a52.417,52.417,0,0,0-3.922,3.974.942.942,0,0,0,1.185,1.185c.13-.037.33-.217,1.191-1.071l1.034-1.026V27c0,4.872,0,5.091.071,5.237a.94.94,0,0,0,1.691-.027c.052-.125.059-.717.059-5.218V21.917L29.6,22.943c1.1,1.089,1.133,1.115,1.49,1.115a.95.95,0,0,0,.93-.93c0-.374.04-.326-1.952-2.329-2.019-2.031-2-2.015-2.414-2.015a.967.967,0,0,0-.4.071m-7.9,7.893a1.015,1.015,0,0,0-.474.525c-.03.1-.039,1.285-.031,4.092l.011,3.948.112.228a1.7,1.7,0,0,0,.723.724l.228.112H35.374l.228-.112a1.7,1.7,0,0,0,.723-.723l.112-.228.011-3.948c.008-2.807,0-3.989-.031-4.092a.947.947,0,0,0-1.513-.356c-.287.272-.269,0-.27,4.041v3.615H20.666V30.957c0-4.043.017-3.768-.27-4.041a1.007,1.007,0,0,0-1.039-.168" transform="translate(0)" fill="#fff" fill-rule="evenodd"/>
  </g>
</svg>
