<svg xmlns="http://www.w3.org/2000/svg" width="17.06" height="19.036" viewBox="0 0 17.06 19.036">
  <g id="svgg" transform="translate(-20.703)">
    <path id="path0" d="M23.7.059a2.216,2.216,0,0,0-1.463,1.428c-.081.24-.082.264-.094,3.3L22.13,7.843h14.2V4.614L34.576,4.6c-2.04-.014-2.014-.01-2.387-.383S31.835,3.9,31.835,1.8V0L27.867,0c-3.342,0-4,.011-4.168.056m9.214,1.834c0,1.505,0,1.562.072,1.6.088.047,3.05.054,3.05.007A37.678,37.678,0,0,0,33,.375L32.913.332V1.893M21.81,8.959a1.448,1.448,0,0,0-1,.789L20.7,9.98v5.427l.107.231a1.425,1.425,0,0,0,1.05.792c.295.048,14.451.048,14.746,0a1.425,1.425,0,0,0,1.05-.792l.107-.231V9.98l-.108-.234a1.557,1.557,0,0,0-.755-.72l-.215-.087-7.359-.006c-4.048,0-7.43.009-7.517.026m4.517,1.708a1.223,1.223,0,0,1,1.087,1.564c-.112.724-.562,1.037-1.492,1.037h-.443v.611a4.457,4.457,0,0,1-.036.7c-.076.2-.466.276-.7.135l-.121-.074V12.717c0-2.1-.012-1.982.211-2.049a8.527,8.527,0,0,1,1.491,0m3.123,0c.978.112,1.2.484,1.2,2.04,0,1.82-.235,2.085-1.852,2.086h-.718l-.11-.11-.11-.11.01-1.878c.011-2.081,0-1.967.257-2.029a6.9,6.9,0,0,1,1.327,0m4.3.046a.552.552,0,0,1,.015.559l-.081.1H32.1v1h.437c.609,0,.782.115.681.45-.06.2-.119.219-.651.219H32.1v1.6l-.1.066a.64.64,0,0,1-.666-.04l-.091-.105.01-1.872c.011-2.075,0-1.961.257-2.025a12.261,12.261,0,0,1,2.248.045M25.479,12v.637h.354c.6,0,.736-.117.737-.637,0-.483-.124-.593-.7-.619l-.387-.017V12m3.234.706V14.05h.362c.684,0,.7-.024.7-1.3,0-1.318-.008-1.335-.694-1.368l-.365-.018v1.343M22.32,17.729a2.156,2.156,0,0,0,1.413,1.246c.307.082,10.695.082,11,0a2.156,2.156,0,0,0,1.413-1.246l.073-.186H22.247l.073.186" fill="#007ab3" fill-rule="evenodd"/>
  </g>
</svg>
