<svg id="svgg" xmlns="http://www.w3.org/2000/svg" width="18.533" height="18.533" viewBox="0 0 18.533 18.533">
  <path id="path0" d="M8.685,1.1c-.3.607-.552,1.1-.567,1.105-.139.006-2.405.356-2.423.373a11.842,11.842,0,0,0,.869.9l.892.878-.2,1.122c-.108.617-.205,1.167-.216,1.222-.027.141-.061.155,1.112-.462.587-.309,1.087-.561,1.112-.561s.526.252,1.113.561c1.178.619,1.136.6,1.109.462-.011-.055-.108-.6-.215-1.222l-.2-1.122.893-.877a11.315,11.315,0,0,0,.868-.9c-.019-.019-2.3-.37-2.422-.374-.015,0-.27-.5-.567-1.1A10.732,10.732,0,0,0,9.267,0a10.737,10.737,0,0,0-.582,1.1M6.516,12.235v3.8h5.5v-7.6h-5.5v3.8m6.552,1v2.805h5.466V10.425H13.067V13.23M0,14.1v1.937H5.466V12.162H0V14.1m0,3.71v.724H5.466V17.085H0v.724m6.54-.7a5.773,5.773,0,0,0-.024.724v.7h5.5l-.01-.715L12,17.1l-2.718-.009c-1.495-.005-2.729,0-2.742.015m6.527.7v.724h5.466V17.085H13.067v.724" fill="#007ab3" fill-rule="evenodd"/>
</svg>
