<svg xmlns="http://www.w3.org/2000/svg" width="53.453" height="53.465" viewBox="0 0 53.453 53.465">
  <path id="path0" d="M11.625.3c-1.979.711-2.63,1.835-2.68,4.631L8.91,6.839H5.03C-.234,6.84.006,6.682.09,10.075.361,21,6.209,30.682,14.162,33.361A3.788,3.788,0,0,1,15.7,34.419a32.041,32.041,0,0,0,5.881,4.2l.7.392V44.6l-.894.069a6.1,6.1,0,0,0-5.145,3.426c-.971,2.033-.909,4.657.124,5.3.537.332,20.284.347,20.786.015,1.057-.7,1.128-3.256.147-5.311a6.1,6.1,0,0,0-5.145-3.426l-.894-.069V39.01l.884-.482A33.313,33.313,0,0,0,38,34.348a3.677,3.677,0,0,1,1.566-.983C47.543,30.787,53.5,20.895,53.5,10.238c0-3.707.443-3.4-4.885-3.4H44.647l-.034-1.905c-.047-2.6-.477-3.492-2.1-4.37L41.864.21,26.935.187c-12.1-.018-15,0-15.311.115m-2.7,15.489c0,6.66.095,7.659.934,10.092.277.8.242.811-.418.091C6.2,22.44,4.032,16.946,3.542,11.041l-.071-.861H8.927l0,5.611m41.339-5.556A29.076,29.076,0,0,1,46.61,22.861c-.933,1.58-3.488,4.681-3.184,3.865,1.11-2.981,1.2-3.795,1.2-10.883l0-5.664h2.819c1.55,0,2.819.025,2.819.055" transform="translate(-0.061 -0.182)" fill="#007ab3" fill-rule="evenodd"/>
</svg>
