<svg xmlns="http://www.w3.org/2000/svg" width="56.049" height="55.977" viewBox="0 0 56.049 55.977">
  <g id="svgg" transform="translate(0.263 -0.015)">
    <path id="path0" d="M11.52.275a3.333,3.333,0,0,0,0,6.038l.558.26H30.124l.558-.26a3.333,3.333,0,0,0,0-6.038l-.558-.26H12.078l-.558.26M3.085,3.513a5.064,5.064,0,0,0-3.1,3.145c-.33.96-.327,41.54,0,42.5a5.059,5.059,0,0,0,3.235,3.176c.5.161,1.756.175,13.087.15l12.538-.028-.654-.765a22.375,22.375,0,0,1-5.182-11.375,127.216,127.216,0,0,1-.174-12.788,4.818,4.818,0,0,1,8.475-2.758c1.323,1.5,1.7,1.729,2.914,1.729a2.647,2.647,0,0,0,2.2-.964c1.985-2.207,3.32-2.777,5.371-2.295l.629.148V15.328c0-8.759.011-8.59-.613-9.589a4.855,4.855,0,0,0-4.709-2.444h-1.35v.469c0,2.485-2.211,5.11-4.922,5.846-.652.177-1.457.193-9.734.193s-9.082-.016-9.734-.193C8.656,8.874,6.445,6.248,6.445,3.763V3.294L5.051,3.3a5.771,5.771,0,0,0-1.966.211m15.54,9.941a1.617,1.617,0,0,1,.548,2.092c-.26.393-6.47,6.633-6.974,7.008-1.009.75-1.493.513-3.851-1.886C6.3,18.582,6.073,18.133,6.653,17.254c.81-1.229,1.674-1.046,3.484.737l1.122,1.1L14.02,16.35c3.406-3.386,3.639-3.533,4.6-2.9m0,11.484a1.617,1.617,0,0,1,.548,2.092c-.26.394-6.47,6.633-6.974,7.008-1.009.75-1.493.513-3.851-1.886C6.3,30.066,6.073,29.617,6.653,28.739c.81-1.229,1.674-1.046,3.484.737l1.122,1.1,2.761-2.745c3.406-3.386,3.639-3.533,4.6-2.9m8.425,1.751a2.371,2.371,0,0,0-.581.545l-.24.338.043,6.318c.041,5.945.057,6.381.276,7.4A19.091,19.091,0,0,0,39.3,55.628a4.175,4.175,0,0,0,3.411,0A19.091,19.091,0,0,0,55.465,41.287c.22-1.016.236-1.452.276-7.4l.043-6.325-.286-.374a1.655,1.655,0,0,0-1.479-.7h-.559L52.293,27.67c-3.111,3.166-7.305,2.991-9.809-.409a1.8,1.8,0,0,0-2.953,0c-2.5,3.4-6.7,3.574-9.809.409l-1.169-1.189h-.581a1.809,1.809,0,0,0-.921.208m-8.425,9.733a1.617,1.617,0,0,1,.548,2.092c-.26.394-6.47,6.634-6.974,7.008-1.009.75-1.493.513-3.851-1.886C6.3,41.551,6.073,41.1,6.653,40.223c.81-1.229,1.674-1.046,3.484.737l1.122,1.1,2.761-2.745c3.406-3.386,3.639-3.533,4.6-2.9" transform="translate(0 0)" fill="#007ab3" fill-rule="evenodd"/>
  </g>
</svg>
