<svg xmlns="http://www.w3.org/2000/svg" width="54.597" height="56.111" viewBox="0 0 54.597 56.111">
  <path id="path0" d="M24.1,2.724c-4.53,1.143-3.526,7.863,1.139,7.628,4.855-.245,4.88-7.4.027-7.688a4.9,4.9,0,0,0-1.166.061m-5.333,9.329c-2.283.188-3.122.6-5.446,2.7-3.236,2.924-4.153,4.437-3.471,5.73.778,1.475,2.454,1.335,3.681-.308a14.812,14.812,0,0,1,3.639-3.472c.666-.328,2.853-.648,2.853-.418,0,.034-.123.528-.274,1.1a110.621,110.621,0,0,0-1.884,11.638c-.564,4.284-.328,3.841-4.211,7.93-3.236,3.407-3.453,3.709-3.441,4.772a2.631,2.631,0,0,0,3.935,2.253A91.669,91.669,0,0,0,20.6,36.747a13.325,13.325,0,0,0,2.082-5.963c.07-.634.15-1.311.177-1.5l.05-.352.7.424c.917.558,2.954,1.6,4.354,2.237,1.619.733,1.553.612,2.6,4.752.478,1.9.948,3.571,1.045,3.719a2.52,2.52,0,0,0,4.622-.929c.2-1.288-1.5-6.978-2.869-9.6-.687-1.315-1.193-1.716-3.728-2.951-3.166-1.542-2.946-1.025-2.387-5.611.237-1.949.432-3.607.433-3.683,0-.322.441-.053,2.413,1.486,3.367,2.626,3.8,2.664,8.685.763,3.279-1.275,4.55-2.081,4.55-2.884a2.575,2.575,0,0,0-3.94-2.2A30.511,30.511,0,0,1,35.3,16.039c-1.208.332-1.54.223-2.92-.959a12.272,12.272,0,0,0-4.783-2.934,57.1,57.1,0,0,0-8.831-.094M46.228,34.937l-.241.257V58.216l.272.272.272.272H61.865l.272-.272.272-.272V35.163l-.257-.241-.257-.241H46.469l-.241.257M27.4,43.575c-.512.28-.5.087-.5,7.555v7.086l.272.272.272.272H42.778l.272-.272.272-.272V51.174c0-7.566.014-7.323-.452-7.564-.4-.208-15.1-.24-15.472-.034M8.105,48l-.292.23v9.981l.275.275.275.275,7.725-.03,7.725-.03.212-.262c.2-.249.212-.5.212-5.235V48.235L23.944,48c-.46-.362-15.379-.362-15.839,0" transform="translate(-7.813 -2.654)" fill="#007ab3" fill-rule="evenodd"/>
</svg>
